HIERARCHY
ROOT reference
{
  OFFSET 0 0 0
  CHANNELS 6 Xposition Yposition Zposition Zrotation Xrotation Yrotation
  JOINT Hips
  {
    OFFSET 347.352 87.9396 215.108
    CHANNELS 3 Zrotation Xrotation Yrotation
    JOINT RightUpLeg
    {
      OFFSET -9.26448 -1.5905 0.0349838
      CHANNELS 3 Zrotation Xrotation Yrotation
      JOINT RightLeg
      {
        OFFSET 0.0309074 -41.8937 0.0182011
        CHANNELS 3 Zrotation Xrotation Yrotation
        JOINT RightFoot
        {
          OFFSET 0.355296 -42.3801 0.810868
          CHANNELS 3 Zrotation Xrotation Yrotation
          End Site
          {
            OFFSET 0 -7.69 17.5
          }
        }
      }
    }
    JOINT LeftUpLeg
    {
      OFFSET 9.27369 -1.59127 -0.0547904
      CHANNELS 3 Zrotation Xrotation Yrotation
      JOINT LeftLeg
      {
        OFFSET 0.0553589 -41.8938 0.0587288
        CHANNELS 3 Zrotation Xrotation Yrotation
        JOINT LeftFoot
        {
          OFFSET 0.217916 -41.5497 -0.688939
          CHANNELS 3 Zrotation Xrotation Yrotation
          End Site
          {
            OFFSET 0 -7.69 17.5
          }
        }
      }
    }
    JOINT Spine
    {
      OFFSET 0.0383554 14.2988 0.0402393
      CHANNELS 3 Zrotation Xrotation Yrotation
      JOINT Spine1
      {
        OFFSET 0.0188251 9.70742 0.0136471
        CHANNELS 3 Zrotation Xrotation Yrotation
        JOINT Spine2
        {
          OFFSET 0.0421292 10.115 0.0126686
          CHANNELS 3 Zrotation Xrotation Yrotation
          JOINT Spine3
          {
            OFFSET 0.0499826 9.71803 0.0151296
            CHANNELS 3 Zrotation Xrotation Yrotation
            JOINT Neck
            {
              OFFSET 0.04654 10.3867 0.0448026
              CHANNELS 3 Zrotation Xrotation Yrotation
              JOINT Head
              {
                OFFSET 0.0370611 9.47282 0.0189897
                CHANNELS 3 Zrotation Xrotation Yrotation
                End Site
                {
                  OFFSET 0 15.95 0
                }
              }
            }
            JOINT RightShoulder
            {
              OFFSET -3.19309 6.93146 -0.00624137
              CHANNELS 3 Zrotation Xrotation Yrotation
              JOINT RightArm
              {
                OFFSET -12.7764 0.00688168 -0.00548706
                CHANNELS 3 Zrotation Xrotation Yrotation
                JOINT RightForeArm
                {
                  OFFSET -26.5073 -0.0244096 0.0677859
                  CHANNELS 3 Zrotation Xrotation Yrotation
                  JOINT RightHand
                  {
                    OFFSET -26.0056 -0.000416843 0.0508974
                    CHANNELS 3 Zrotation Xrotation Yrotation
                    JOINT RightHandThumb1
                    {
                      OFFSET -2.48905 0.190105 3.12053
                      CHANNELS 3 Zrotation Xrotation Yrotation
                      JOINT RightHandThumb2
                      {
                        OFFSET -3.68274 0 0
                        CHANNELS 3 Zrotation Xrotation Yrotation
                        JOINT RightHandThumb3
                        {
                          OFFSET -2.55832 0 0
                          CHANNELS 3 Zrotation Xrotation Yrotation
                          End Site
                          {
                            OFFSET -2.194 0 0
                          }
                        }
                      }
                    }
                    JOINT RightInHandIndex
                    {
                      OFFSET -3.22368 0.508421 1.97842
                      CHANNELS 3 Zrotation Xrotation Yrotation
                      JOINT RightHandIndex1
                      {
                        OFFSET -5.21684 -0.091368 0.999158
                        CHANNELS 3 Zrotation Xrotation Yrotation
                        JOINT RightHandIndex2
                        {
                          OFFSET -3.61937 0 0
                          CHANNELS 3 Zrotation Xrotation Yrotation
                          JOINT RightHandIndex3
                          {
                            OFFSET -2.0521 0 0
                            CHANNELS 3 Zrotation Xrotation Yrotation
                            End Site
                            {
                              OFFSET -1.805 0 0
                            }
                          }
                        }
                      }
                    }
                    JOINT RightInHandMiddle
                    {
                      OFFSET -3.38211 0.517263 0.756737
                      CHANNELS 3 Zrotation Xrotation Yrotation
                      JOINT RightHandMiddle1
                      {
                        OFFSET -5.17411 -0.084 0.313895
                        CHANNELS 3 Zrotation Xrotation Yrotation
                        JOINT RightHandMiddle2
                        {
                          OFFSET -3.94947 0 0
                          CHANNELS 3 Zrotation Xrotation Yrotation
                          JOINT RightHandMiddle3
                          {
                            OFFSET -2.47579 0 0
                            CHANNELS 3 Zrotation Xrotation Yrotation
                            End Site
                            {
                              OFFSET -1.975 0 0
                            }
                          }
                        }
                      }
                    }
                    JOINT RightInHandRing
                    {
                      OFFSET -3.36516 0.537895 -0.128947
                      CHANNELS 3 Zrotation Xrotation Yrotation
                      JOINT RightHandRing1
                      {
                        OFFSET -4.63474 -0.022105 -0.478947
                        CHANNELS 3 Zrotation Xrotation Yrotation
                        JOINT RightHandRing2
                        {
                          OFFSET -3.44238 0 0
                          CHANNELS 3 Zrotation Xrotation Yrotation
                          JOINT RightHandRing3
                          {
                            OFFSET -2.3881 0 0
                            CHANNELS 3 Zrotation Xrotation Yrotation
                            End Site
                            {
                              OFFSET -1.857 0 0
                            }
                          }
                        }
                      }
                    }
                    JOINT RightInHandPinky
                    {
                      OFFSET -3.16105 0.469368 -1.20179
                      CHANNELS 3 Zrotation Xrotation Yrotation
                      JOINT RightHandPinky1
                      {
                        OFFSET -4.14105 -0.022105 -1.09053
                        CHANNELS 3 Zrotation Xrotation Yrotation
                        JOINT RightHandPinky2
                        {
                          OFFSET -2.75653 0 0
                          CHANNELS 3 Zrotation Xrotation Yrotation
                          JOINT RightHandPinky3
                          {
                            OFFSET -1.74189 0 0
                            CHANNELS 3 Zrotation Xrotation Yrotation
                            End Site
                            {
                              OFFSET -1.645 0 0
                            }
                          }
                        }
                      }
                    }
                  }
                }
              }
            }
            JOINT LeftShoulder
            {
              OFFSET 3.25131 6.94393 -0.0111894
              CHANNELS 3 Zrotation Xrotation Yrotation
              JOINT LeftArm
              {
                OFFSET 12.7762 -0.0164608 -0.057961
                CHANNELS 3 Zrotation Xrotation Yrotation
                JOINT LeftForeArm
                {
                  OFFSET 26.494 -0.0292415 -0.00751187
                  CHANNELS 3 Zrotation Xrotation Yrotation
                  JOINT LeftHand
                  {
                    OFFSET 26.0005 -0.052199 0.00178648
                    CHANNELS 3 Zrotation Xrotation Yrotation
                    JOINT LeftHandThumb1
                    {
                      OFFSET 2.48905 0.190105 3.12053
                      CHANNELS 3 Zrotation Xrotation Yrotation
                      JOINT LeftHandThumb2
                      {
                        OFFSET 3.68274 0 0
                        CHANNELS 3 Zrotation Xrotation Yrotation
                        JOINT LeftHandThumb3
                        {
                          OFFSET 2.55832 0 0
                          CHANNELS 3 Zrotation Xrotation Yrotation
                          End Site
                          {
                            OFFSET 2.194 0 0
                          }
                        }
                      }
                    }
                    JOINT LeftInHandIndex
                    {
                      OFFSET 3.22368 0.508421 1.97842
                      CHANNELS 3 Zrotation Xrotation Yrotation
                      JOINT LeftHandIndex1
                      {
                        OFFSET 5.21684 -0.091368 0.999158
                        CHANNELS 3 Zrotation Xrotation Yrotation
                        JOINT LeftHandIndex2
                        {
                          OFFSET 3.61937 0 0
                          CHANNELS 3 Zrotation Xrotation Yrotation
                          JOINT LeftHandIndex3
                          {
                            OFFSET 2.0521 0 0
                            CHANNELS 3 Zrotation Xrotation Yrotation
                            End Site
                            {
                              OFFSET 1.805 0 0
                            }
                          }
                        }
                      }
                    }
                    JOINT LeftInHandMiddle
                    {
                      OFFSET 3.38211 0.517263 0.756737
                      CHANNELS 3 Zrotation Xrotation Yrotation
                      JOINT LeftHandMiddle1
                      {
                        OFFSET 5.17411 -0.084 0.313895
                        CHANNELS 3 Zrotation Xrotation Yrotation
                        JOINT LeftHandMiddle2
                        {
                          OFFSET 3.94947 0 0
                          CHANNELS 3 Zrotation Xrotation Yrotation
                          JOINT LeftHandMiddle3
                          {
                            OFFSET 2.47579 0 0
                            CHANNELS 3 Zrotation Xrotation Yrotation
                            End Site
                            {
                              OFFSET 1.975 0 0
                            }
                          }
                        }
                      }
                    }
                    JOINT LeftInHandRing
                    {
                      OFFSET 3.36516 0.537895 -0.128947
                      CHANNELS 3 Zrotation Xrotation Yrotation
                      JOINT LeftHandRing1
                      {
                        OFFSET 4.63474 -0.022105 -0.478947
                        CHANNELS 3 Zrotation Xrotation Yrotation
                        JOINT LeftHandRing2
                        {
                          OFFSET 3.44238 0 0
                          CHANNELS 3 Zrotation Xrotation Yrotation
                          JOINT LeftHandRing3
                          {
                            OFFSET 2.3881 0 0
                            CHANNELS 3 Zrotation Xrotation Yrotation
                            End Site
                            {
                              OFFSET 1.857 0 0
                            }
                          }
                        }
                      }
                    }
                    JOINT LeftInHandPinky
                    {
                      OFFSET 3.16105 0.469368 -1.20179
                      CHANNELS 3 Zrotation Xrotation Yrotation
                      JOINT LeftHandPinky1
                      {
                        OFFSET 4.14105 -0.022105 -1.09053
                        CHANNELS 3 Zrotation Xrotation Yrotation
                        JOINT LeftHandPinky2
                        {
                          OFFSET 2.75653 0 0
                          CHANNELS 3 Zrotation Xrotation Yrotation
                          JOINT LeftHandPinky3
                          {
                            OFFSET 1.74189 0 0
                            CHANNELS 3 Zrotation Xrotation Yrotation
                            End Site
                            {
                              OFFSET 1.645 0 0
                            }
                          }
                        }
                      }
                    }
                  }
                }
              }
            }
          }
        }
      }
    }
  }
}
MOTION
Frames: 2
Frame Time: 0.00833333
6.000000000000000000e+02 0.000000000000000000e+00 0.000000000000000000e+00 0.000000000000000000e+00 0.000000000000000000e+00 0.000000000000000000e+00 -1.624816448784357006e-02 3.506869664564590816e-01 5.927388720118450527e-01 -1.248826139554123360e+00 -4.054603842357858978e-01 -1.834307523861453459e+00 6.568547280915100484e-02 9.060515605142900608e-02 -2.624694729008055297e-02 2.196429795821647490e-01 -2.616646250480718083e-01 1.669030996662219657e-01 1.292788863171613345e-01 -1.191392636036707309e+00 -6.661454249382260662e-02 2.561372699664166142e-01 4.154689375036335619e-01 4.996025651308961396e-02 -1.188277789557982966e-03 4.247136151558790207e-01 -3.448855626467854929e-01 8.712652618127313120e-02 3.353760862801256071e-01 -4.118196589180800338e-01 2.936474260491672358e-02 4.463210840657670653e-02 -1.190713289618687970e-01 4.498875917507139111e-02 4.775673578105983641e-02 -1.768779397815952725e-01 8.106203520753965316e-03 4.539164405477643521e-02 -4.356510392080224781e-02 1.434908395889977206e-01 3.123832681896223651e-01 -3.408199165992933377e-01 1.894681934843336357e-01 -1.124646110624400418e-02 -4.444264792355757665e-01 5.101166666385285042e-01 -3.122865625565180436e-01 -1.957235335231653495e-01 3.512795400018830172e+00 9.790098453853716132e-01 2.332656028646564739e+00 -1.404281488526764710e+00 -6.110843802586849449e-01 -2.814340763421400382e+00 1.139796636669081382e-02 -3.687854935371160936e-01 1.112706233448569337e+00 0.000000000000000000e+00 0.000000000000000000e+00 0.000000000000000000e+00 -2.255822904803516749e-15 2.246605026248022270e-16 0.000000000000000000e+00 -1.923045467306540528e-15 -1.527351278776961910e-15 0.000000000000000000e+00 -9.652385034655110754e-16 -2.805798880720609114e-16 4.064581723526592084e-16 0.000000000000000000e+00 0.000000000000000000e+00 0.000000000000000000e+00 0.000000000000000000e+00 2.259296883082079182e-15 4.484897352895904586e-17 0.000000000000000000e+00 1.171028882660525723e-15 1.214903634909308228e-15 -9.652385034655110754e-16 -2.805798880720609114e-16 4.064581723526592084e-16 0.000000000000000000e+00 1.692987952492022347e-15 -7.240855114177616428e-16 0.000000000000000000e+00 -2.444245393700764498e-15 4.378476766936819079e-15 0.000000000000000000e+00 -8.756028808745015610e-16 -5.846583145460604703e-16 -9.652385034655110754e-16 -2.805798880720609114e-16 4.064581723526592084e-16 0.000000000000000000e+00 0.000000000000000000e+00 0.000000000000000000e+00 0.000000000000000000e+00 2.113200039707356759e-15 1.824531544911547991e-15 0.000000000000000000e+00 1.514777692435986802e-16 6.551417271205370161e-16 -9.652385034655110754e-16 -2.805798880720609114e-16 4.064581723526592084e-16 0.000000000000000000e+00 0.000000000000000000e+00 0.000000000000000000e+00 0.000000000000000000e+00 3.713290077135618958e-16 -5.870483710417340564e-16 0.000000000000000000e+00 -8.666693025310909479e-16 1.735446101916652881e-15 6.174402345880257714e-01 4.192174095450916793e-01 6.090192997401272512e-01 -4.058006175946209382e-01 1.496461565651402426e-01 8.872623000793740111e-01 -1.822349900476580298e-01 3.573326844272944891e-01 1.873087605617449913e+00 -2.212771838880015218e-01 8.638048330976392242e-01 -1.010001159864741399e-01 0.000000000000000000e+00 0.000000000000000000e+00 0.000000000000000000e+00 -2.773174016336204277e-15 1.523101572182531559e-15 0.000000000000000000e+00 -1.873645147988625248e-15 1.287619164730304982e-15 0.000000000000000000e+00 5.891428315581805698e-16 -2.003880260970415700e-16 -4.390130496135041584e-15 0.000000000000000000e+00 0.000000000000000000e+00 0.000000000000000000e+00 0.000000000000000000e+00 -1.006407676214091784e-15 1.019810925336586369e-15 0.000000000000000000e+00 1.446598056614577030e-15 1.696010552371717038e-15 5.891428315581805698e-16 -2.003880260970415700e-16 -4.390130496135041584e-15 0.000000000000000000e+00 5.071207776465862347e-16 -2.840552471067862398e-15 0.000000000000000000e+00 -3.056397625644935362e-16 -8.645194597552259204e-16 0.000000000000000000e+00 1.765093219296250939e-15 -8.787484181831322641e-16 5.891428315581805698e-16 -2.003880260970415700e-16 -4.390130496135041584e-15 0.000000000000000000e+00 0.000000000000000000e+00 0.000000000000000000e+00 0.000000000000000000e+00 8.145220820680348455e-16 2.188684793423175147e-16 0.000000000000000000e+00 -3.986278069996939332e-15 -2.697838143013084808e-16 5.891428315581805698e-16 -2.003880260970415700e-16 -4.390130496135041584e-15 0.000000000000000000e+00 0.000000000000000000e+00 0.000000000000000000e+00 0.000000000000000000e+00 -3.821926568461453110e-16 -1.392080598219078884e-15 0.000000000000000000e+00 -9.013876145448990197e-17 1.013632765896910947e-15
6.000000000000000000e+02 0.000000000000000000e+00 0.000000000000000000e+00 0.000000000000000000e+00 0.000000000000000000e+00 0.000000000000000000e+00 -6.960335185535396207e-02 3.218871325273073847e-01 6.543998291346424523e-01 -1.347961461067038735e+00 -3.366688614902803578e-01 -1.915235213828842209e+00 5.398737959972333550e-02 6.824347541694468500e-02 -1.386062521438910511e-02 2.999973133955562421e-01 -2.844157589874796721e-01 1.370094992827315672e-01 4.765302280592198514e-02 -1.207792818724672257e+00 -1.062598776518987598e-01 2.412371612540865351e-01 4.293671264425108491e-01 3.451648035076497478e-02 -1.028714290544261445e-01 3.959889602019473487e-01 -4.129707031966357023e-01 9.814414863644822795e-02 3.718906373053376679e-01 -3.627230120867799279e-01 3.308080959689905370e-02 5.389856821810516674e-02 -1.076691699255661050e-01 5.079603932912731684e-02 6.168705882987560174e-02 -1.590995200032084000e-01 8.606481771720374263e-03 4.431102344295322765e-02 -5.308062875328915797e-02 1.427264505865756539e-01 3.168677472418284236e-01 -3.624399851876763945e-01 2.132077989317666677e-01 -3.919693457764718975e-02 -5.870733866237236587e-01 4.838830482724717497e-01 -3.751781316055662341e-01 -1.450680163999921168e-01 3.648582968119562953e+00 1.055048587869015453e+00 2.554834380471186162e+00 -1.510430423861343519e+00 -7.525703376762564734e-01 -3.024200348242438441e+00 2.769304821297725525e-02 -3.827445842249000973e-01 1.123920883458187969e+00 0.000000000000000000e+00 0.000000000000000000e+00 0.000000000000000000e+00 -2.321905687776942128e-15 -1.980497658028729746e-17 0.000000000000000000e+00 -2.268620783255735481e-15 -1.054765580894333961e-15 0.000000000000000000e+00 -1.311365740812727326e-15 -7.684855746614149315e-17 -3.208900116109871105e-16 0.000000000000000000e+00 0.000000000000000000e+00 0.000000000000000000e+00 0.000000000000000000e+00 2.333813854397619550e-15 5.318022145262419699e-16 0.000000000000000000e+00 1.098988814665983427e-15 1.671637967207662795e-15 -1.311365740812727326e-15 -7.684855746614149315e-17 -3.208900116109871105e-16 0.000000000000000000e+00 2.425396727709408773e-15 -5.865679504002280461e-16 0.000000000000000000e+00 -2.200870773989212075e-15 4.216725587023689527e-15 0.000000000000000000e+00 -6.974839665326616039e-16 -2.819035613638886428e-16 -1.311365740812727326e-15 -7.684855746614149315e-17 -3.208900116109871105e-16 0.000000000000000000e+00 0.000000000000000000e+00 0.000000000000000000e+00 0.000000000000000000e+00 1.780872596143374612e-15 2.891658380153501319e-15 0.000000000000000000e+00 3.394766484862968236e-16 2.577315434864874904e-16 -1.311365740812727326e-15 -7.684855746614149315e-17 -3.208900116109871105e-16 0.000000000000000000e+00 0.000000000000000000e+00 0.000000000000000000e+00 0.000000000000000000e+00 3.494518173820886219e-16 2.708561115246636055e-16 0.000000000000000000e+00 -6.345877716147729609e-16 2.026242203968137951e-15 5.820742865451207226e-01 4.064233733298620588e-01 6.903059647882032746e-01 -4.852107318757893917e-01 1.944064497572624839e-01 9.796708715610389362e-01 -2.712306822713624888e-01 2.942560077496589876e-01 1.718453849341329054e+00 -1.783640510026925641e-01 8.912611821441426274e-01 -6.532592254509907159e-02 0.000000000000000000e+00 0.000000000000000000e+00 0.000000000000000000e+00 -3.152040049278442172e-15 1.843449067391021014e-15 0.000000000000000000e+00 -1.808944409579318781e-15 1.491276645267046041e-15 0.000000000000000000e+00 7.210513354107814766e-16 -4.285328517806359197e-18 -4.131511801130556428e-15 0.000000000000000000e+00 0.000000000000000000e+00 0.000000000000000000e+00 0.000000000000000000e+00 -9.178764931058710873e-16 9.147865261791027580e-16 0.000000000000000000e+00 1.127179468528328511e-15 1.633219862782529120e-15 7.210513354107814766e-16 -4.285328517806359197e-18 -4.131511801130556428e-15 0.000000000000000000e+00 5.676487126359427227e-16 -2.706304527169336912e-15 0.000000000000000000e+00 -2.149774766920808121e-16 -5.801600418890868240e-17 0.000000000000000000e+00 2.141165221950687471e-15 -9.717563728697719424e-16 7.210513354107814766e-16 -4.285328517806359197e-18 -4.131511801130556428e-15 0.000000000000000000e+00 0.000000000000000000e+00 0.000000000000000000e+00 0.000000000000000000e+00 9.000681169789701850e-16 3.990000421415187447e-16 0.000000000000000000e+00 -3.842602703330160602e-15 -1.560011034551824348e-16 7.210513354107814766e-16 -4.285328517806359197e-18 -4.131511801130556428e-15 0.000000000000000000e+00 0.000000000000000000e+00 0.000000000000000000e+00 0.000000000000000000e+00 2.054941009820948379e-16 -1.474279702217474615e-15 0.000000000000000000e+00 2.202282363123289386e-18 4.123522424877062690e-16
